HIERARCHY
ROOT hip
{
  OFFSET 0 0 0
  CHANNELS 6 Xposition Yposition Zposition Zrotation Yrotation Xrotation
  JOINT abdomen
  {
    OFFSET 0 20.6881 -0.73152
    CHANNELS 3 Zrotation Xrotation Yrotation
    JOINT chest
    {
      OFFSET 0 11.7043 -0.48768
      CHANNELS 3 Zrotation Xrotation Yrotation
      JOINT neck
      {
        OFFSET 0 22.1894 -2.19456
        CHANNELS 3 Zrotation Xrotation Yrotation
        JOINT head
        {
          OFFSET -0.24384 7.07133 1.2192
          CHANNELS 3 Zrotation Xrotation Yrotation
          JOINT leftEye
          {
            OFFSET 4.14528 8.04674 8.04672
            CHANNELS 3 Zrotation Xrotation Yrotation
            End Site
            {
              OFFSET 1 0 0
            }
          }
          JOINT rightEye
          {
            OFFSET -3.6576 8.04674 8.04672
            CHANNELS 3 Zrotation Xrotation Yrotation
            End Site
            {
              OFFSET 1 0 0
            }
          }
        }
      }
      JOINT rCollar
      {
        OFFSET -2.68224 19.2634 -4.8768
        CHANNELS 3 Zrotation Xrotation Yrotation
        JOINT rShldr
        {
          OFFSET -8.77824 -1.95073 1.46304
          CHANNELS 3 Zrotation Xrotation Yrotation
          JOINT rForeArm
          {
            OFFSET -28.1742 -1.7115 0.48768
            CHANNELS 3 Zrotation Xrotation Yrotation
            JOINT rHand
            {
              OFFSET -22.5879 0.773209 7.07136
              CHANNELS 3 Zrotation Xrotation Yrotation
              JOINT rThumb1
              {
                OFFSET -1.2192 -0.487915 3.41376
                CHANNELS 3 Zrotation Xrotation Yrotation
                JOINT rThumb2
                {
                  OFFSET -3.37035 -0.52449 3.41376
                  CHANNELS 3 Zrotation Xrotation Yrotation
                  End Site
                  {
                    OFFSET -1.78271 -1.18214 1.43049
                  }
                }
              }
              JOINT rIndex1
              {
                OFFSET -7.75947 0.938293 5.60832
                CHANNELS 3 Zrotation Xrotation Yrotation
                JOINT rIndex2
                {
                  OFFSET -2.54057 -0.884171 1.56538
                  CHANNELS 3 Zrotation Xrotation Yrotation
                  End Site
                  {
                    OFFSET -1.62519 -0.234802 1.16502
                  }
                }
              }
              JOINT rMid1
              {
                OFFSET -8.24714 1.18213 3.41376
                CHANNELS 3 Zrotation Xrotation Yrotation
                JOINT rMid2
                {
                  OFFSET -3.10165 -0.590103 1.0647
                  CHANNELS 3 Zrotation Xrotation Yrotation
                  End Site
                  {
                    OFFSET -2.48547 -0.328903 0.83742
                  }
                }
              }
              JOINT rRing1
              {
                OFFSET -8.82822 0.546677 1.51678
                CHANNELS 3 Zrotation Xrotation Yrotation
                JOINT rRing2
                {
                  OFFSET -2.60934 -0.819778 -0.0198488
                  CHANNELS 3 Zrotation Xrotation Yrotation
                  End Site
                  {
                    OFFSET -2.33842 -0.294052 0.168128
                  }
                }
              }
              JOINT rPinky1
              {
                OFFSET -8.27202 -0.0477905 -0.4584
                CHANNELS 3 Zrotation Xrotation Yrotation
                JOINT rPinky2
                {
                  OFFSET -1.82734 -0.647385 -0.700984
                  CHANNELS 3 Zrotation Xrotation Yrotation
                  End Site
                  {
                    OFFSET -1.69225 -0.51767 -0.607171
                  }
                }
              }
            }
          }
        }
      }
      JOINT lCollar
      {
        OFFSET 2.68224 19.2634 -4.8768
        CHANNELS 3 Zrotation Xrotation Yrotation
        JOINT lShldr
        {
          OFFSET 8.77824 -1.95073 1.46304
          CHANNELS 3 Zrotation Xrotation Yrotation
          JOINT lForeArm
          {
            OFFSET 28.1742 -1.7115 0.48768
            CHANNELS 3 Zrotation Xrotation Yrotation
            JOINT lHand
            {
              OFFSET 22.5879 0.773209 7.07136
              CHANNELS 3 Zrotation Xrotation Yrotation
              JOINT lThumb1
              {
                OFFSET 1.2192 -0.487915 3.41376
                CHANNELS 3 Zrotation Xrotation Yrotation
                JOINT lThumb2
                {
                  OFFSET 3.37035 -0.52449 3.41376
                  CHANNELS 3 Zrotation Xrotation Yrotation
                  End Site
                  {
                    OFFSET 1.78271 -1.18214 1.43049
                  }
                }
              }
              JOINT lIndex1
              {
                OFFSET 7.75947 0.938293 5.60832
                CHANNELS 3 Zrotation Xrotation Yrotation
                JOINT lIndex2
                {
                  OFFSET 2.54057 -0.884171 1.56538
                  CHANNELS 3 Zrotation Xrotation Yrotation
                  End Site
                  {
                    OFFSET 1.62519 -0.234802 1.16502
                  }
                }
              }
              JOINT lMid1
              {
                OFFSET 8.24714 1.18213 3.41376
                CHANNELS 3 Zrotation Xrotation Yrotation
                JOINT lMid2
                {
                  OFFSET 3.10165 -0.590103 1.0647
                  CHANNELS 3 Zrotation Xrotation Yrotation
                  End Site
                  {
                    OFFSET 2.48547 -0.328903 0.83742
                  }
                }
              }
              JOINT lRing1
              {
                OFFSET 8.82822 0.546677 1.51678
                CHANNELS 3 Zrotation Xrotation Yrotation
                JOINT lRing2
                {
                  OFFSET 2.60934 -0.819778 -0.0198488
                  CHANNELS 3 Zrotation Xrotation Yrotation
                  End Site
                  {
                    OFFSET 2.33842 -0.294052 0.168128
                  }
                }
              }
              JOINT lPinky1
              {
                OFFSET 8.27202 -0.0477905 -0.4584
                CHANNELS 3 Zrotation Xrotation Yrotation
                JOINT lPinky2
                {
                  OFFSET 1.82734 -0.647385 -0.700984
                  CHANNELS 3 Zrotation Xrotation Yrotation
                  End Site
                  {
                    OFFSET 1.69225 -0.51767 -0.607171
                  }
                }
              }
            }
          }
        }
      }
    }
  }
  JOINT rButtock
  {
    OFFSET -8.77824 4.35084 1.2192
    CHANNELS 3 Zrotation Xrotation Yrotation
    JOINT rThigh
    {
      OFFSET 0 -1.70687 -2.19456
      CHANNELS 3 Zrotation Xrotation Yrotation
      JOINT rShin
      {
        OFFSET 0 -36.8199 0.73152
        CHANNELS 3 Zrotation Xrotation Yrotation
        JOINT rFoot
        {
          OFFSET 0.73152 -45.1104 -5.12064
          CHANNELS 3 Zrotation Xrotation Yrotation
          End Site
          {
            OFFSET -1.1221 -3.69964 12.103
          }
        }
      }
    }
  }
  JOINT lButtock
  {
    OFFSET 8.77824 4.35084 1.2192
    CHANNELS 3 Zrotation Xrotation Yrotation
    JOINT lThigh
    {
      OFFSET 0 -1.70687 -2.19456
      CHANNELS 3 Zrotation Xrotation Yrotation
      JOINT lShin
      {
        OFFSET 0 -36.8199 0.73152
        CHANNELS 3 Zrotation Xrotation Yrotation
        JOINT lFoot
        {
          OFFSET -0.73152 -45.1104 -5.12064
          CHANNELS 3 Zrotation Xrotation Yrotation
          End Site
          {
            OFFSET 1.1221 -3.69964 12.103
          }
        }
      }
    }
  }
}
MOTION
Frames:	4
Frame Time:	0.00833333
51.9964 74.0797 201.474 -179.057 -2.9532 -166.984 7.29965 17.563 9.32762 -2.45491 -13.3116 2.47676 -6.74353 12.6113 -5.166 -1.50837 -48.3587 -13.1947 -0.0 0.0 0.0 -0.0 0.0 0.0 3.59675e-14 -1.74926e-13 1.9425e-14 71.4366 29.5495 -2.5275 -11.415 -5.0475 20.4822 -3.56083 45.9003 8.35551 -9.24596e-10 5.1308e-10 -8.71152e-10 -1.62521e-09 8.95551e-10 -1.47312e-09 -9.24591e-10 5.1308e-10 -8.71159e-10 7.73091 5.47488 0.417314 -9.24597e-10 5.13079e-10 -8.71149e-10 2.90554 0.965183 0.102902 -9.24595e-10 5.13079e-10 -8.71146e-10 10.2786 0.731801 0.0259123 -9.24602e-10 5.13082e-10 -8.71135e-10 2.22167 -0.733487 -0.20892 3.5995e-14 -1.74935e-13 1.93132e-14 -83.8097 19.6432 24.7563 13.8455 -6.83017 -25.2443 1.76196 34.839 -5.61329 5.50642e-11 7.35744e-11 -4.11725e-10 8.52691e-11 1.28232e-10 -7.09834e-10 5.50627e-11 7.35738e-11 -4.1171e-10 -7.73091 5.47488 -0.417314 5.50661e-11 7.35753e-11 -4.11719e-10 -2.90554 0.965183 -0.102902 5.50559e-11 7.35777e-11 -4.11722e-10 -10.2786 0.731801 -0.0259123 5.50687e-11 7.35776e-11 -4.11731e-10 -2.22167 -0.733487 0.20892 -2.03217e-16 0.0 -3.88251e-19 13.7096 -52.4651 3.17022 -1.12341 63.0736 2.18058 -9.56617 -17.3041 -20.3466 2.03217e-16 0.0 3.88251e-19 9.30607 -55.2855 8.41174 1.09748 60.9779 -1.71503 3.75931 -21.8574 7.24935
52.2364 73.5761 201.356 -178.598 -2.6321 -166.943 7.11658 17.9255 9.63478 -2.72408 -13.5663 2.52536 -6.47224 13.5509 -5.20827 -1.95232 -50.6538 -14.0332 -0.0 0.0 0.0 -0.0 0.0 0.0 6.0154e-14 -4.1094e-14 2.10199e-15 71.5889 27.1997 -2.0533 -11.7787 -5.29557 21.1811 -3.64741 46.3388 8.48074 4.38548e-10 5.42037e-10 -9.71444e-10 7.20083e-10 9.84991e-10 -1.69434e-09 4.38554e-10 5.42039e-10 -9.71455e-10 7.73091 5.47488 0.417314 4.38548e-10 5.42036e-10 -9.71438e-10 2.90554 0.965183 0.102902 4.3855e-10 5.42036e-10 -9.71438e-10 10.2786 0.731801 0.0259123 4.38544e-10 5.42039e-10 -9.71429e-10 2.22167 -0.733487 -0.20892 6.01893e-14 -4.11031e-14 1.93815e-15 -83.6075 19.807 24.3193 13.8549 -6.83779 -25.263 1.82683 35.3674 -5.72524 -1.25229e-09 3.07915e-10 -2.43757e-10 -2.16781e-09 5.22269e-10 -3.81263e-10 -1.25229e-09 3.07917e-10 -2.43749e-10 -7.73091 5.47488 -0.417314 -1.25229e-09 3.07917e-10 -2.43755e-10 -2.90554 0.965183 -0.102902 -1.2523e-09 3.0792e-10 -2.43757e-10 -10.2786 0.731801 -0.0259123 -1.25229e-09 3.07919e-10 -2.43766e-10 -2.22167 -0.733487 0.20892 -2.03217e-16 0.0 -3.88251e-19 15.1614 -54.3416 4.60509 -1.37291 66.0962 2.46128 -9.81283 -16.9173 -20.8171 2.03217e-16 0.0 3.88251e-19 10.325 -57.2656 9.32943 1.32063 64.0336 -1.96853 4.13845 -21.877 7.91662
52.4025 72.7256 201.223 -178.234 -2.355 -166.89 6.98043 18.3042 9.76513 -2.93839 -13.7944 2.53152 -6.1942 13.955 -5.17411 -2.24882 -52.2276 -14.5342 -0.0 0.0 0.0 -0.0 0.0 0.0 5.40554e-14 6.67963e-14 -7.85199e-15 71.6683 25.5244 -1.36022 -12.1029 -5.52105 21.8091 -3.54368 45.9356 8.34929 1.36935e-09 4.76322e-10 -9.88462e-10 2.3238e-09 8.97254e-10 -1.75604e-09 1.36935e-09 4.76324e-10 -9.88478e-10 7.73091 5.47488 0.417314 1.36935e-09 4.76321e-10 -9.88456e-10 2.90554 0.965183 0.102902 1.36935e-09 4.76322e-10 -9.88459e-10 10.2786 0.731801 0.0259123 1.36934e-09 4.76324e-10 -9.8845e-10 2.22167 -0.733487 -0.20892 5.40871e-14 6.67872e-14 -8.05078e-15 -83.4271 20.2453 23.7247 13.8813 -6.85908 -25.3156 1.8432 35.5011 -5.75362 -2.14874e-09 4.14099e-10 8.94722e-11 -3.7074e-09 6.9844e-10 2.1993e-10 -2.14874e-09 4.14103e-10 8.94754e-11 -7.73091 5.47488 -0.417314 -2.14874e-09 4.14101e-10 8.94722e-11 -2.90554 0.965183 -0.102902 -2.14875e-09 4.14105e-10 8.94706e-11 -10.2786 0.731801 -0.0259123 -2.14874e-09 4.14103e-10 8.94626e-11 -2.22167 -0.733487 0.20892 -2.03217e-16 0.0 -3.88251e-19 16.5203 -55.9847 5.84454 -1.65824 68.7461 2.77153 -10.0114 -16.6831 -21.1298 2.03217e-16 0.0 3.88251e-19 11.2043 -58.917 10.0299 1.5649 66.6539 -2.23816 4.46842 -22.1486 8.43695
52.429 71.4624 201.083 -178.09 -2.2527 -166.8 6.88805 18.7356 9.66667 -3.10427 -13.9866 2.47973 -5.85186 13.5465 -5.02935 -2.21035 -52.7864 -14.4401 -0.0 0.0 0.0 -0.0 0.0 0.0 -9.44382e-15 1.57616e-13 -5.58499e-15 71.6778 24.6685 -0.351177 -12.3774 -5.71755 22.3413 -3.1831 44.2643 7.85686 1.7428e-09 2.21471e-10 -9.05335e-10 2.97202e-09 4.65388e-10 -1.624e-09 1.7428e-09 2.21475e-10 -9.05355e-10 7.73091 5.47488 0.417314 1.7428e-09 2.2147e-10 -9.0533e-10 2.90554 0.965183 0.102902 1.7428e-09 2.21473e-10 -9.05339e-10 10.2786 0.731801 0.0259123 1.74279e-09 2.21474e-10 -9.05325e-10 2.22167 -0.733487 -0.20892 -9.43391e-15 1.57607e-13 -5.79193e-15 -83.2464 21.1718 22.9194 13.9251 -6.89419 -25.4035 1.79159 35.089 -5.66557 -2.58237e-09 3.13304e-10 8.65229e-10 -4.43723e-09 5.2175e-10 1.57011e-09 -2.58237e-09 3.13308e-10 8.65231e-10 -7.73091 5.47488 -0.417314 -2.58237e-09 3.13306e-10 8.65227e-10 -2.90554 0.965183 -0.102902 -2.58238e-09 3.13309e-10 8.65227e-10 -10.2786 0.731801 -0.0259123 -2.58237e-09 3.13308e-10 8.65219e-10 -2.22167 -0.733487 0.20892 -2.03217e-16 0.0 -3.88251e-19 17.6946 -57.3717 6.78334 -1.96249 70.9566 3.09179 -10.1465 -16.6411 -21.2238 2.03217e-16 0.0 3.88251e-19 11.7601 -60.1349 10.2918 1.80143 68.7087 -2.49476 4.74864 -22.8195 8.77046
